<?xml version="1.0" standalone="no"?>
<!DOCTYPE svg PUBLIC "-//W3C//DTD SVG 20010904//EN"
 "http://www.w3.org/TR/2001/REC-SVG-20010904/DTD/svg10.dtd">
<svg version="1.0" xmlns="http://www.w3.org/2000/svg"
 width="300.000000pt" height="300.000000pt" viewBox="0 0 300.000000 300.000000"
 preserveAspectRatio="xMidYMid meet">
<metadata>
Created by potrace 1.11, written by Peter Selinger 2001-2013
</metadata>
<g transform="translate(0.000000,300.000000) scale(0.100000,-0.100000)"
fill="#000000" stroke="none">
<path d="M1400 2429 c-84 -54 -170 -116 -240 -174 -99 -81 -269 -262 -373
-395 -25 -31 -125 -187 -158 -245 -106 -187 -206 -457 -245 -660 -4 -22 -8
-44 -10 -50 -1 -5 -5 -29 -8 -52 -6 -37 -4 -43 21 -60 114 -79 425 -192 653
-237 176 -35 241 -41 465 -41 238 1 292 7 551 60 121 26 328 101 481 177 l103
50 -6 42 c-34 235 -108 467 -221 686 -73 143 -69 137 -145 251 -118 175 -300
371 -487 522 -60 49 -270 187 -284 187 -1 0 -45 -27 -97 -61z m186 -270 c322
-210 567 -519 698 -880 39 -107 91 -331 83 -353 -5 -13 -93 -59 -192 -101 -83
-35 -258 -87 -335 -99 -19 -3 -47 -8 -61 -11 -109 -21 -372 -27 -494 -11 -192
26 -353 71 -528 147 -136 60 -140 64 -132 118 15 103 71 299 111 388 134 300
289 506 524 698 86 70 211 154 231 154 9 1 52 -22 95 -50z"/>
</g>
</svg>
